<?xml version="1.0" encoding="UTF-8" standalone="no"?>
<!-- Created with Inkscape (http://www.inkscape.org/) -->

<svg
   width="1200"
   height="630"
   viewBox="0 0 317.49999 166.6875"
   version="1.1"
   id="svg5"
   xml:space="preserve"
   sodipodi:docname="cover_template.svg"
   inkscape:version="1.2.2 (b0a8486541, 2022-12-01)"
   xmlns:inkscape="http://www.inkscape.org/namespaces/inkscape"
   xmlns:sodipodi="http://sodipodi.sourceforge.net/DTD/sodipodi-0.dtd"
   xmlns="http://www.w3.org/2000/svg"
   xmlns:svg="http://www.w3.org/2000/svg"><sodipodi:namedview
     id="namedview16"
     pagecolor="#ffffff"
     bordercolor="#666666"
     borderopacity="1.0"
     inkscape:showpageshadow="2"
     inkscape:pageopacity="0"
     inkscape:pagecheckerboard="0"
     inkscape:deskcolor="#d1d1d1"
     showgrid="false"
     inkscape:zoom="0.37460317"
     inkscape:cx="507.20339"
     inkscape:cy="316.33475"
     inkscape:current-layer="svg5" /><defs
     id="defs2"><filter
       id="filter5139-4-3-3-1"
       style="color-interpolation-filters:sRGB;stroke-linecap:butt;stroke-linejoin:round;stroke-miterlimit:100000"
       x="-0.010885007"
       y="-0.020951379"
       width="1.02177"
       height="1.0419028"><feTurbulence
         id="feTurbulence5141-3-4-2-2"
         result="turbulence"
         baseFrequency="0.013 0.013"
         seed="1"
         numOctaves="5"
         type="fractalNoise"
         style="stroke-linecap:butt;stroke-linejoin:round;stroke-miterlimit:100000" /><feDisplacementMap
         id="feDisplacementMap5143-4-8-9-2"
         xChannelSelector="R"
         yChannelSelector="G"
         scale="6"
         in2="turbulence"
         in="SourceGraphic"
         style="stroke-linecap:butt;stroke-linejoin:round;stroke-miterlimit:100000" /></filter><filter
       id="filter5139-4-3-3-1-9"
       style="color-interpolation-filters:sRGB;stroke-linecap:butt;stroke-linejoin:round;stroke-miterlimit:100000"
       x="-0.010885007"
       y="-0.020951379"
       width="1.02177"
       height="1.0419028"><feTurbulence
         id="feTurbulence5141-3-4-2-2-2"
         result="turbulence"
         baseFrequency="0.013 0.013"
         seed="1"
         numOctaves="5"
         type="fractalNoise"
         style="stroke-linecap:butt;stroke-linejoin:round;stroke-miterlimit:100000" /><feDisplacementMap
         id="feDisplacementMap5143-4-8-9-2-2"
         xChannelSelector="R"
         yChannelSelector="G"
         scale="6"
         in2="turbulence"
         in="SourceGraphic"
         style="stroke-linecap:butt;stroke-linejoin:round;stroke-miterlimit:100000" /></filter></defs><g
     id="layer1"
     inkscape:label="layer1"><g
       id="g14686"
       transform="matrix(2.323358,0,0,2.323358,-186.64775,58.553946)"
       inkscape:label="datalad_logo"><ellipse
         style="fill:white;fill-opacity:1;fill-rule:evenodd;stroke:none;stroke-width:0.132292;stroke-linecap:round;stroke-linejoin:bevel;paint-order:stroke fill markers"
         id="path5693"
         cx="200.57611"
         cy="27.694344"
         rx="13.833119"
         ry="14.041862"
         inkscape:label="white_circle" /><g
         id="layer1-3"
         transform="matrix(0.08626588,0,0,0.08626588,181.78563,22.591481)"
         inkscape:label="D"><path
           style="font-style:normal;font-variant:normal;font-weight:bold;font-stretch:normal;font-size:192px;line-height:25px;font-family:Montserrat;-inkscape-font-specification:'Montserrat Bold';text-align:start;letter-spacing:0px;word-spacing:0px;writing-mode:lr-tb;text-anchor:start;display:inline;fill:#333;fill-opacity:1;stroke:none;stroke-width:1.56809px;stroke-linecap:butt;stroke-linejoin:miter;stroke-opacity:1"
           d="m 218.6056,-46.380098 -22.23511,22.234993 22.6271,22.6270987 h 3.29849 c 11.03936,0 20.87511,2.609563 29.50585,7.8282226 8.63086,5.0179417 15.35368,12.1414947 20.17078,21.3745077 5.01795,9.232897 7.52814,19.870117 7.52814,31.913061 0,11.842226 -2.30831,22.380079 -6.9247,31.612976 -4.61651,9.233009 -11.0411,16.359599 -19.27041,21.377539 -2.94639,1.79655 -6.05244,3.25697 -9.30754,4.41031 2.27146,2.41572 20.36684,17.92277 20.36684,17.92277 l -14.47419,27.11695 c 11.17255,-2.18177 21.54491,-5.71643 31.11381,-10.61215 17.4622,-8.83158 30.91099,-21.27374 40.3446,-37.33104 9.63445,-16.057296 14.45284,-34.423954 14.45284,-55.097642 0,-20.673687 -4.71902,-38.937829 -14.15264,-54.7944091 -9.43361,-16.0572979 -22.68051,-28.5026099 -39.7414,-37.3340709 -16.86005,-8.831461 -36.32955,-13.249116 -58.40837,-13.249116 z"
           id="path1711-6-2-1" /><path
           style="font-style:normal;font-variant:normal;font-weight:bold;font-stretch:normal;font-size:192px;line-height:25px;font-family:Montserrat;-inkscape-font-specification:'Montserrat Bold';text-align:start;letter-spacing:0px;word-spacing:0px;writing-mode:lr-tb;text-anchor:start;fill:#ffa200;fill-opacity:1;stroke:none;stroke-width:1.56809px;stroke-linecap:butt;stroke-linejoin:miter;stroke-opacity:1"
           d="M 132.57493,-46.380098 V 164.6753 c 0,0 78.41868,0.0233 84.85763,0 6.43894,-0.0233 9.16746,-1.17609 9.16746,-1.17609 L 241.36484,140.4126 217.73649,120.11632 H 187.67246 V -1.5180063 l -10.49272,-10.4957497 -12.13123,-12.131349 -0.007,-0.003 c 0.002,0.0015 11.16846,-11.166014 22.23511,-22.232078 z"
           id="path1711-6-2-1-9" /></g></g></g></svg>
